<mxfile host="Electron" modified="2024-06-16T07:54:36.690Z" agent="Mozilla/5.0 (Windows NT 10.0; Win64; x64) AppleWebKit/537.36 (KHTML, like Gecko) draw.io/24.5.3 Chrome/124.0.6367.207 Electron/30.0.6 Safari/537.36" etag="FnESH-FteAEFvFGxOSbT" version="24.5.3" type="device">
  <diagram name="Page-1" id="heXN2tnLz2UfoD1BlHWH">
    <mxGraphModel dx="1050" dy="621" grid="1" gridSize="10" guides="1" tooltips="1" connect="1" arrows="1" fold="1" page="1" pageScale="1" pageWidth="827" pageHeight="1169" math="0" shadow="0">
      <root>
        <mxCell id="0" />
        <mxCell id="1" parent="0" />
        <mxCell id="6wWjzIDheBg6crcwVd9T-1" value="load empty HTML" style="html=1;shadow=0;dashed=0;align=center;verticalAlign=middle;shape=mxgraph.arrows2.arrow;dy=0;dx=10;notch=10;whiteSpace=wrap;spacing=15;" parent="1" vertex="1">
          <mxGeometry x="145" y="310" width="91" height="50" as="geometry" />
        </mxCell>
        <mxCell id="6wWjzIDheBg6crcwVd9T-3" value="download JS bundle" style="html=1;shadow=0;dashed=0;align=center;verticalAlign=middle;shape=mxgraph.arrows2.arrow;dy=0;dx=10;notch=10;whiteSpace=wrap;spacing=15;" parent="1" vertex="1">
          <mxGeometry x="231" y="310" width="91" height="50" as="geometry" />
        </mxCell>
        <mxCell id="6wWjzIDheBg6crcwVd9T-4" value="render initial DOM" style="html=1;shadow=0;dashed=0;align=center;verticalAlign=middle;shape=mxgraph.arrows2.arrow;dy=0;dx=10;notch=10;whiteSpace=wrap;spacing=15;" parent="1" vertex="1">
          <mxGeometry x="317" y="310" width="91" height="50" as="geometry" />
        </mxCell>
        <mxCell id="6wWjzIDheBg6crcwVd9T-5" value="" style="endArrow=none;dashed=1;html=1;rounded=0;" parent="1" edge="1">
          <mxGeometry width="50" height="50" relative="1" as="geometry">
            <mxPoint x="415" y="360" as="sourcePoint" />
            <mxPoint x="415" y="285" as="targetPoint" />
          </mxGeometry>
        </mxCell>
        <mxCell id="6wWjzIDheBg6crcwVd9T-6" value="Interactive" style="text;html=1;align=center;verticalAlign=middle;whiteSpace=wrap;rounded=0;" parent="1" vertex="1">
          <mxGeometry x="385" y="247" width="60" height="30" as="geometry" />
        </mxCell>
        <mxCell id="6wWjzIDheBg6crcwVd9T-7" value="query data" style="html=1;shadow=0;dashed=0;align=center;verticalAlign=middle;shape=mxgraph.arrows2.arrow;dy=0;dx=10;notch=10;whiteSpace=wrap;spacing=15;" parent="1" vertex="1">
          <mxGeometry x="425" y="385" width="91" height="50" as="geometry" />
        </mxCell>
        <mxCell id="6wWjzIDheBg6crcwVd9T-12" value="render full HTML with data" style="html=1;shadow=0;dashed=0;align=center;verticalAlign=middle;shape=mxgraph.arrows2.arrow;dy=0;dx=10;notch=10;whiteSpace=wrap;spacing=15;" parent="1" vertex="1">
          <mxGeometry x="511" y="310" width="91" height="50" as="geometry" />
        </mxCell>
        <mxCell id="6wWjzIDheBg6crcwVd9T-13" value="" style="endArrow=classic;html=1;rounded=0;curved=1;" parent="1" edge="1">
          <mxGeometry width="50" height="50" relative="1" as="geometry">
            <mxPoint x="396" y="370" as="sourcePoint" />
            <mxPoint x="426" y="410" as="targetPoint" />
            <Array as="points">
              <mxPoint x="396" y="400" />
            </Array>
          </mxGeometry>
        </mxCell>
        <mxCell id="6wWjzIDheBg6crcwVd9T-14" value="fetch" style="text;html=1;align=center;verticalAlign=middle;whiteSpace=wrap;rounded=0;" parent="1" vertex="1">
          <mxGeometry x="333" y="385" width="50" height="30" as="geometry" />
        </mxCell>
        <mxCell id="6wWjzIDheBg6crcwVd9T-15" value="" style="endArrow=none;dashed=1;html=1;rounded=0;" parent="1" edge="1">
          <mxGeometry width="50" height="50" relative="1" as="geometry">
            <mxPoint x="609" y="361" as="sourcePoint" />
            <mxPoint x="609" y="286" as="targetPoint" />
          </mxGeometry>
        </mxCell>
        <mxCell id="6wWjzIDheBg6crcwVd9T-16" value="Content painted" style="text;html=1;align=center;verticalAlign=middle;whiteSpace=wrap;rounded=0;" parent="1" vertex="1">
          <mxGeometry x="579" y="248" width="60" height="30" as="geometry" />
        </mxCell>
        <mxCell id="6wWjzIDheBg6crcwVd9T-17" value="" style="shape=image;verticalLabelPosition=bottom;labelBackgroundColor=default;verticalAlign=top;aspect=fixed;imageAspect=0;image=data:image/png,iVBORw0KGgoAAAANSUhEUgAAAOEAAADhCAMAAAAJbSJIAAAAeFBMVEX///8AAAAeHh709PSlpaWenp7IyMh0dHRra2vPz88+Pj7o6Oji4uJLS0vV1dWGhoaOjo60tLS7u7t9fX3CwsL4+Pjc3Nzs7Oxubm5nZ2dRUVGXl5cmJiZfX19aWlqpqakyMjINDQ0WFhY5OTkwMDBDQ0MUFBSBgYG4Lo8wAAAJtElEQVR4nO1deWP6LAxWO2+d1vuezm1+/2/4rhIol/pLTdfgy/OX9qA8DYGQBFqrRUREREREREREREREREREREREcESSts+N6nBup0mp/BbrevXoDMojOK2aHGBUEr/kWDUzhfO8FII/VfPSsCuDIh8JZujRE+SigxJjaoJ9VfR+1k+qQn9yUPVYEjNcQbm7BXHBWCwaUJMVbblShKVoOA7zT6hLn7RYKcKqJZjhvQwhShF2KAstjE4JQlyV0jCKok8vxAErEdZq0jqmM1BXRonzS69MaAPdbGOdu4iObkAtRLNVzP95UC6Is3zu1nNSUKTWRFMLx2UzrKfisYnvnJAwsRCtjnRTOsOpeFDXd24jztEKUZYGer3yPZgUoIkD37mVeY6k77PHwnffg0khLc6h55w0OWR3SiFEZyyclcsvt3zne/vcqSXPEWqiz5zplwn94cvb5+g0kX50pQGZJsqC1hS1IgWVJpZh5dKASIi8JhUmaF4+ZadMDRIh8tXCDBSdYIegjPJAIETOWpjheU3k25EKPC0BblN7F89qIldzJseTMuCuhRme0yPuWpjhKSHy18IMz4xn/LUwwxM2CW9zJkdxQYQhwieUKQwtzFBUE0MRYWF16he7rRIUm+GNAhgLJaQQcVk2wWhhBqmJmHukQ52/FmaQQuwi7oGoz7C0StECnONbxC2gvB+l1YkWb3idgvyn99LqRAtQqvPjKxV24pZyUznpAJHGHeIWyMpZtcMABI8aeIaBITKMDPkjMvxfMpy1wsCsMMPqk0n/DfPCDAOzaSJDHZEhM0SGHnBk+P42Go0n3iq9BMOmXIOw9ywXeAGGg51murjrgQgZuitxnCOJYyY4l8yxloSV8Om4qckYdhv2Cxz9Fms4cwZnOyEy8xJNjOps6vUNqnUs6xZs3y8Vw8X12EU70r4e0Zyq4lEb7ZLm9cjMLvsTURlPJq3lIqNiuLYPQsHt/BLws2qdgTjwnR+YiCOGWO+jJXkND1Idv80rqBjCq8xFBuqhLXaERYq5yGS+fX4J+Dab8v9gO/ZCZQPXYEHeIdNneD+WM75KhlKFbjL8cFqghGoaxlNm1gtiz9DpRDRAKUL9VVBC1MLszTgzTO8wbBtPkXURqq53ZrwZSr3yYeplKJbsmDEjzgzvLaKCdtk3yzxf/5lBGM4M/Ut/jCugp4GgBDTrtz9lqA1Ot0aL002Gtfkk9SKPrwu7on7ORtlm3a4EJUOofm5UQhPTrJw35/liSqB1DC37JTzEQon1JH8czCuoGIoWpwdaRb+mWdbzax30rlx0JbqV9Z0dQG2JIOP0OazoO5nl3d+fjqlx5ON42htTh/nq58sMNrd6p405pRs1GsjNSWwHtR2bDn9+aNkFzgQxfIa15KARdI32F2D429hh6erP2FOpl2D4S6OVfkz8ezoUYAjzMA57RPwLYDzBZCpAk0gfX8kCMAXbPL5SAVakl7CRTyk43+hj70BaiwhfQ4WQUzBMXpvMTcTdVBGkH+f0+FINasOGLfco6Vzt8dB8fLGOfIBdjz/e2GKcL2jHiVBz4QWD1mNSJsrf4IMWmOTSICkWIOjdHYYvkN1MhubjUlkBTfG2h4grsEP3Sd15GDX5YpRPHFHhLK2N+qZjrJDIxS+Wh/ERpAjRg0wFmBURotTCMKZPMn6FWVoQ2OzpS1QXMyaGOQPeI24BL0YYy55UeOELcQtLT1Q3TSf+d/4SvrYuTJMavgnrCzA09jVzgzrhM1x+1nU4fSYZw+X6s2f6ptLeZ8eMzEwbR9O26A5/DqbfdbzbIbeqtiMzdh9PG13T6791rrreONUOiOiaTvEaaEWt3XSja9byZCqGEIvND0CEVAuVvTkVECVpEU1wjyDMwTxCqmDl7jGPcs8mXuSNH9beff2+lEQ6Hsx8R9aZCrd30lRhUPH3R4wSTeske4b3sk3AkB6YZQobVMsWZM7wXsbQxXiKmTEUTk5U0ayvcHKi7mXuwdALrVS6YcS0x5xGcGZ4J/tS5ayIvxvjmaZZwzuDdjEeeZGXATZpJ+tMZbDBtJLKzoLWEoTAi6y5E5yXAH0LYnKtQiiHNYRC60fzCiqGQmR6P72y36dolHo3IDjr1uzVikYFitxMdss3SmZ5Zy/zYhyZ2k9b7H5NKmMG17QFtvyt8DfqEypOd9S2LvjbFSXLxytKEuyszDJ8Dvb58OeHf7gqqDo0T8DvRVd2ZehuL9NR6lXg4jlRoXgTwezB5ERB/xxGOo0aYzGOg8uNTospwEWPycuV4ZwwtlGScSRE7riamJ6oP25WBpRBgLrrUi/wXqqBmkTjksfzr9gct5MuX0y2X6qmyPy02/M2rkBvLsfhq7EYFPgci/ORF9Yosg1pyR/MIUaBHjG05ER01oj3c1KsgTWie/mtww5faA6O78ekdChP7YG74fauvgOHmyfIzxsXSGr8c8g0UczmnipkR/5Z4VIgM9swmgivBTNprhIFGhyM9rhsv+oAAsHsshvYyi6YIB4Rt3D0RNWSxeKGpi3xSsWP4XIr6rT3mWev4E3UFg6c3Z3wX4ChGZtxxEjHsHmYmpqwmB6sLvpjvzIDQ8vLYWzOvmfrNdJNaX++1razqBjOd/YLvLpIjKzOjT3ICNtBd2hdo6h29Ogu3NU7lsOCiiE8SDsiDmgR59S5T8Q0tQn4u18Md+CJ9ZsxvvKi3GDbaa7mW1FuLY3ejnLX+gMv8jvAKGvMsibvFSLrTIWlDFw7UOos/pq7t5hBctYM7+zJDKNC3yQseh2zmXJmeM8ZNNafogL/ws35gjlRKnIm3kk4OVGe3FGFD+MS2bcI68aMinFmKO/wQE3ZzRtO13/m1Jw1w1q6GXqRj7Lf4g7hLtzof6gZwlK/3D6B6mtZdDB0aXabOKDZPaB5iCiD1NXOpNuEiv2YV1AxFDqu92JD+30OnCdNTYmp0CTGqNdTTQSsnDEyyztT8qFuTcyzBmS4OjJLdWdMb7IIjzF6Xds2ykfpZErb0Xe6uUUys/0ai5Z1zbxlV34wswPJXeySXSvU5+RcvMD80EiW3jih0BdgWFvmsT5P3uYrMPzl+Lb+7m1G3hBT8ZyoEL4NmKF/Qz/vACJPIazkzgD2O2bZMtgmKF9DhYB1Q9PHVypIMyKEhKH8k6KYhdkynQYVsKoMMhSI6hhl53zk39n0pVGHS8fI522r2SDhi8EsX36JDOS366EB3S26Bj1vYLYbEEgeF8oJpwL2VxKSFI/FDMxV1fX+ZxQ2Td7DSFDsPBONT9L2edfgi11vmnKaAUVERERERERERERERERERERE/I/xH5aXq0EcxunzAAAAAElFTkSuQmCC;" parent="1" vertex="1">
          <mxGeometry x="70" y="385" width="50" height="50" as="geometry" />
        </mxCell>
        <mxCell id="6wWjzIDheBg6crcwVd9T-18" value="" style="shape=image;verticalLabelPosition=bottom;labelBackgroundColor=default;verticalAlign=top;aspect=fixed;imageAspect=0;image=data:image/jpeg,/9j/4AAQSkZJRgABAQACWAJYAAD/2wBDAAgGBgcGBQgHBwcJCQgKDBQNDAsLDBkSEw8UHRofHh0aHBwgJC4nICIsIxwcKDcpLDAxNDQ0Hyc5PTgyPC4zNDL/wAALCADIAPUBASIA/8QAHAABAAIDAQEBAAAAAAAAAAAAAAcIBAUGAwEC/8QATxAAAQIEAgMJCgsFCAMBAQAAAQIDAAQFBgcREiExCBhBUVVhkZPRExUiVHF0gaGy0hQXMjU2N0JylLHBI1JTc+EkM0NigpKisxaE8TTC/9oACAEBAAA/AN/i3i25azpodDKDVCnN59QzDAOwAcKvyiuFTrNSrMyqYqU8/NvKOZU6sq/+Rg5HiMMjxGGR4jDI8RhkeIwyPEYZHiMMjxGGR4jDI8RhkeIwyPEYZHiMMjxGGR4jDI8RhkeIwyPEYZHiMMjxGGR4jDI8RhkeIwyPEYZHiMMjxGPusa8jHWWpiPcdozSFyU+47Kg+HKvKKm1DiyOzyiLX2bdsjelvM1WR8HS8F1onW0sbUmKY1mpvVqtTlSmFFT0y8pxRPOYtjh3h5RLetiSWqRl5iffZS6/MOthaiVDPIZ7AM46uakaJJSzkzMycgyw2kqW4tpASkcZOURVWMarDp00piSonfHRORdbl0IQfISMz0RsLZxXsK4ptEo7T2abMrOSBNMI0FHi0hq6cokoUilkZinSZH8hPZH4eptHl2VuvSMi22gFSlqZQAkDhJyiLK7jNYVKmly8lSE1NSDkXGJdCUZ8xO3oj2t3F+wa5NolZmmt0x1ZySZmXQUE/eGz0xJ6KVSnEhSKfJKSRmCGUkEdEF0qlNoUtdPkkpSMyospAA6Ii+4cYLBos0uVlaY3U3UHJSpaXQGwfvHb6I86FjLYVWmkS85SU0xSzkFvy6FI9Khs6IlJqmUh9pLrUjIrbWApK0soIUDwg5R6d56ZybJ9Qnsh3npnJsn1CeyHeemcmyfUJ7Id56ZybJ9Qnsh3npnJsn1CeyHeemcmyfUJ7Id56ZybJ9Qnsh3npnJsn1CeyHeemcmyfUJ7Id56ZybJ9Qnsh3npnJsn1CeyHeemcmyfUJ7Id56ZybJ9Qnsh3npnJsn1CeyPiqLS1JKTTZMg6iO4J7IrvjzY9Mt6YkKzSmESzc4tTbzDYySFgZhQHBnrjiLKv6o2Y1ONSazoTKkKKeAEZjP1+qOPG2L30X5ip/mzfsiIC3Qd4TK6sza8s6pEs02l6ZCTlpqPyQeYDX6Yj6y8Na9fKXnaallqVZOiuYfUQnS4hkCSY1l2WhV7Mqop9WaSlak6bbjZzQ4njBiwuA94TFftmYpc86XZmmqSlC1HMqaV8nPyZEdEc9uhLwmZcytryjqm0Ot93myk5FQzySnyaieiIosvD2uX0+8mloaQyxl3V95WSEk7BzmPC8bHrNkVBuVqraMnQVNPNHSQ4BtyPHzRN+5/vCZqtKm7fnXVOrkAHJdSjme5nUU+g/nH53QN4TNLpspb0k6W1zyS5MKScj3MHIJ9Jz6IhOzrGrN8T7ktSW0aLICnXnVZIbB2Znj5o9bzw/rdjTDKKohtbL+fcn2VZoURtHMeaJa3PV4TMymbtibdU4hhvu8qVHMpTnkpPk1g9MThUKhK0uQenp15DEswgrccWcgkCI4Xj7Y6FqSHp5QBy0hLHI+uPz8f9kfxJ/wDDf1h8f9kfxJ/8N/WHx/2R/En/AMN/WHx/2R/En/w39YfH/ZH8Sf8Aw39YfH/ZH8Sf/Df1h8f9kfxJ/wDDf1h8f9kfxJ/8N/WHx/2R/En/AMN/WHx/2R/En/w39YfH/ZH8Sf8Aw39Y+jH+yCf7yfH/AKx7YkCiVyn3FSmalS5hL8q6PBWPWCOAxEe6S+jVF88V7EVvgNsXvovzFT/Nm/ZEVfx6pr8niS9NLSe5TjDbjauA5DRI6RHT4LYm0G3bedodbfEmUvKdafKSUrCsswcthGUczjTfdMvOsyTVIzclZFCk93Kcu6KURnlnryGUdfubaa+lNcqikkML7mwgnYpQzJ/MdMc9uhqa/L3zLVBST3CalEpSrg0kEgj1jpjMwSxHolrSE7R6078FQ693dqYKSUk5AFKstmyMDG3EGk3e/T5CjLL8vJqUtcwUkBSlADJOevLVG13N9NfXXKvU9EiXbl0saXAVKVnl0D1x+d0fTH0XBSanoksOyxY0uAKSonLoMa/BLEKkWi5UKdWVlhibUlxExokhKgMslZa8oysbcRqLdMlJUiiufCm2Xu7uzGiQnPIgJTnrO3XGPud6Y+/e05UUpPcJWUUlSuDSWRkPUYnq+7ccuyzahRmXgy7MIHc1nZpAggHm1RWteBt+JWpIpjKgDlpCZRkfXHz4jr95Ka/Eo7YfEdfvJTX4lHbD4jr95Ka/Eo7YfEdfvJTX4lHbD4jr95Ka/Eo7YfEdfvJTX4lHbD4jr95Ka/Eo7YfEdfvJTX4lHbD4jr95Ka/Eo7YfEdfvJTX4lHbD4jr95Ka/Eo7YDA6/M/mtkf8Aso7YsHhdZ8zZVnt02deS5NOOqedCDmlBOXgjojh90l9GqL54r2IrfAbYvfRfmKn+bN+yI5/ECwpC+6IJSYV3GbaJVLTIGZbVxHjB4RFa6zg9etHmVNCjuTjQPgvSnhpUOPLaPSI2Ns4IXXWptHfCVNLk8/DdmMtPL/Knbn5cos3bdvSFr0OXpNOb0JdlOWZ2rPCo85jAvey6fe9BXTp3NtxJ02H0jwml8fk4xFZq7g1edGmloapi6gwD4L0p4QUPJtEe9u4KXhWppCZqRNMlc/DemtRA5k7SYs1aVq0+z6CzSqck6CPCW4r5TiztUYXdalPvGgPUqoJOgrwm3E/KaWNihFZLhwWvCiza0y0gqpS2fgPSuskc6doMeVBwavOszSG3aYunsE+E9NnRAHMNpizNk2ZT7IoKKbI5rWTpvvqHhOr4zzcQjpIQhCEIQhCEIQiEt0l9GqL54r2IrfCJVlsf7tlZVmXbl6boNIShObKs8gMv3o9d8NeHi9M6lXvQ3w14eL0zqVe9DfDXh4vTOpV70N8NeHi9M6lXvQ3w14eL0zqVe9DfDXh4vTOpV70N8NeHi9M6lXvQ3w14eL0zqVe9DfDXh4vTOpV70N8NeHi9M6lXvQ3w14eL0zqVe9DfDXh4vTOpV70N8NeHi9M6lXvQ3w14eL0zqVe9DfDXh4vTOpV70N8NeHi9M6lXvQ3w14eL0zqVe9DfDXh4vTOpV70N8NeHi9M6lXvQ3w14eL0zqVe9DfDXh4vTOpV70N8NeHi9M6lXvQ3w14eL0zqVe9DfDXh4vTOpV70N8NeHi9M6lXvQ3w14eL0zqVe9DfDXh4vTOpV70cxeeJtbvqRlpSqtSiG5dwuILCCk5kZa8yY4yAixshueKBOU6VmV1eopU6yhwgBGQJAPFGRvb7e5YqXQjshvb7e5YqXQjshvb7e5YqXQjshvb7e5YqXQjshvb7e5YqXQjshvb7e5YqXQjshvb7e5YqXQjshvb7e5YqXQjshvb7e5YqXQjshvb7e5YqXQjshvb7e5YqXQjshvb7e5YqXQjshvb7e5YqXQjshvb7e5YqXQjshvb7e5YqXQjshvb7e5YqXQjshvb7e5YqXQjshvb7e5YqXQjshvb7e5YqXQjshvb7e5YqXQjshvb7e5YqXQjshvb7e5YqXQjshvb7e5YqXQjshvb7e5YqXQjshvb7e5YqXQjshvb7e5YqXQjshvb7e5YqXQjsjgMVsLaZYNJkJuRnpqYXMvlpQe0cgAnPVkIimA2xe+i/MVP82b9kRnQhCEIQhCPCbnZWQYU/OTLUu0nat1YSB6THCVbGqyKUpSBU1TjifsyjZWOnUPXHLTO6RoiFES1En3RwFa0I7YxkbpSnlXh25NAc0wk/pG4kN0NacyoJm5WoSef2lNhYHQf0juaJflr3FkKZWZV5w/4RXoL/2qyMdHCEIQhCEIRCW6S+jVF88V7EVvgNsXvovzFT/Nm/ZEZ0IQhCEI8Jucl5CVcmpt9thhsaS3HFaKUjnMQbe26BbZW5JWowl1QzSZ59Pg/wChPD5T0RCFZuKs3HNl+q1CZnHVHUFrJA5gnYPRGrIKSQRkRtBjMl6TPTVPmp9mWcXKSuXdngPBRmcgCeMngj8U6nTdWnm5GRYU/Mu56Dadqshnq6I8HG1suKbcSpC0khSVDIg8Rj4nTT+1TpAA/LHAfLHfWnjBdNrqQ0qaNQkRtl5olWQ/yq2iLEWRidQb2aDcq78HqAGa5N4gL8qf3h5I7WEIQhCEIhLdJfRqi+eK9iK3wG2L30X5ip/mzfsiM6EIQhCNXcFwU+2aQ9U6m+GZdoa+NR4EgcJMVOxBxMqt8zykKUqWpaFfsZRKtX3l8Z/KPWw8Ka3eq0zIT8CpefhTTqflcyB9r8olO7bftjCKx3JimyiHq1NfsJeamAFuBRGtQ4E5Di5oga3aHOXTcUrSpTNUxNOZFR16I2qUfIMzFi8R7bkLUwNnaVTmghpruWkrLW4rTTmo85iEsJPrToP88+yqJNx3w9aMsbtpjIStBAnkIGpQ4HPLwGIywyuCUo91NSlVYZmKRUCJeaaeQFJGZ8FWviPqJiWL2wBkZxtydtV0Sr/yvgbqs21/dO1P5RAk3J1W2KwWZht+QqEsvMbUqSRsIP6xYXCnGJNfLVDuFxLdSy0WZk6kzHMeJX5xM0IQhCEIhLdJfRqi+eK9iK3wG2L30X5ip/mzfsiM6EIQhHjNTTMlKuzMw4ltlpBW4tRyCUgZkmKhYnYgzN8V1Xc1KRSZZRTKs57f855z6hHT4R4SG4y3Xq60pNKSc2GDqMwRwn/L+cWYYYalmEMMNpbaQkJShAyCQOACKt493EatfXextecvTGw3kDq7orWo/kPRHY7na1kokp65n2/DdV8GlyRsSNaiPKch6I7TG76qqp95r/sTFesJPrToP88+yqLgT0kxUZCYkplAWw+2ptxJ4QRkYpDc9Fetu5qhSXc9KVeUhKuNP2T6RkYtrhdcRubD+mzri9KYbR3B88OmjVn6RkfTH6vzD6l3zSyzMoDU82D8Hm0jwkHiPGnmipFfoNTtKvO06fbUzNsKzSpJ1KHApJ4osng5iR/5bSTS6k4DV5NAzUTrfb2BXlHDEpwhCEIRCW6S+jVF88V7EVvgNsXvovzFT/Nm/ZEZ0IQhCIN3QN6qk5Jm1pJzJ2ZAdmyk6w39lPpOv0RFuFtjLva6UNPJUKbK5OzShwjgQOc/lnFv5eXalJduXYbS2y2kIQhIyCQNgEYlVrdOo0q4/PzsvLpQkq/auBJOQ2DOKP1moOVatT1QdJK5l9bpJ5yTE5WxjZa9p2jTaPLU6oTC5ZkJcUEpSFLOtR1njJjTX7jbJXhac3RGKNMS5fKCHXHgctFQOwDmiNbOr6LXuyn1pbBfTKOFZaSrRKtRG30xObG6So6v7+gzzfOh1CuyIpxTuijXjczVYpDUw0XGAiYQ8gA6SdhGROerLojvtzzdEpIIq1Gn5xlhK1IfY7s4EhR2KAz4dkWEQtLiQpCgpJ2EHMGI8xbsBu8bbXMSzY77SSSthQGtxO0oPl4OeKu29XJ21rilapKEomJVzMpOrSGxST5RmIuvQ6vLV6iSdUk1aTE00HE82e0eUHVGwhCEIRCW6S+jVF88V7EVvgNsXvovzFT/ADZv2RGdCEIR5zD7ctLuPuqCW20FaieAAZmKQXbXXbmuqo1Z0k/CHiUA8CBqSOjKJkte97ZwpseXkv8A99dmh8ImWZcjwFKGpK1bBkMtWvhjibjxuu+uqW3LTKaZLHUG5UZKy51nX0ZRH0zNzU86p6afefcOtS3FlR6THrS6ZN1mpy9OkGi7NTCwhpAIGkfTEjSmAF6zABeTISwP8SYzI/2gx4XVgtWrStqYrU9UZFxpgpBba0io6RA4RzxxVs0F657ik6NLvNsvTS9BK3AdEaideXkiSZjc63U2CWZ+mPc2mpP5pjlLnwsum0qcuoVOUa+BoUEqdaeCwCTkNW2OMAJOQGZ5o3lEvO4rdcSqlVeaYA+x3QqQfKk6olu1d0Q+hSJe55BLiNhmpUZKHOUbD6Ij/FGVpBug1igTLT9Mqie7p7n/AIbn20kbQc9eXPErbna5DM0eft55eapRQfYBP2FfKHoP5xN8IQhCIS3SX0aovnivYit8Bti99F+Yqf5s37IjOhCEI4nFuqmj4Z1h5CtFx1sS6DzrIT+RMU4jd23adau2ofBKRJrfX9texDY41K2CJ3tbc9UqTSh+4ptc8/tLDJKGhzE7T6o9sZqLRrZwuXLUmmysmHpppv8AZNgEjMnWdp2RFGCcoJrFSl5jMMhx3oQe2LeRHmN31VVT7zX/AGJivWEn1p0H+efZVFyI4nF2UE3hbXE5ZlDIdH+lQMVdw9fTL4hUFawFIM4hCgoZghRy/WLQ3DhNZ9xpWp6ltyswr/HlP2as+PIaj6REJXngVXKAhyco7nfWSQCSlKcnkDnTw+joiKFpUhRQoEFJyIIyyMSBgrVTS8T6cnSybmwuWXz6QzHrAi3cIQhCIS3SX0aovnivYit8Bti99F+Yqf5s37IjOhCEIiLdETJasGVZB1PTyAfQlRiv1mWw/d90ydGYVoB5Wbjn7iBrUeiLk29btNtektU2ly6WWGxrIHhLPCpR4TG1iHN0Y4U2TTkcCp4epCojnc/NheJWkfsSTpH/ABEWpiPMbvqqqn3mv+xMV6wk+tOg/wA8+yqLkRzl/tB7D6voI2yLvqSTFOrYcLV1UhwbUzjJ/wCYi9EIhHG7DaUmaU/dNLYSzOS/hTaEDIOo4VZfvD1iILs6YMpelEfSciidZP8AzEXihCEIRCW6S+jVF88V7EVvgNsXvovzFT/Nm/ZEZ0IQhEObo1sqsmnLGxE8M/ShURFg7cMrbmIcpMTqkol5hCpZTitiCrLInmzA6Yt+CFAEEEHYRH2Ia3Ryc7NpiuAT3/8ACoj7c9qAxHcHHIufmmLTRHmN31VVT7zX/YmK9YSfWnQf559lUXIjn76UEWFXlHxB72TFNLdSV3NSkjaZtof8xF64RwmLlxylBw/qKH1p+ETrSpZhonWoqGROXEBmYqlbLZduqkNp2qnGQP8AeIvRCEIQiEt0l9GqL54r2IrfAbYvfRfmKn+bN+yIzoQhCI3xzpyp/DCdWlOapV1t/wBAOR9RipUTBh3jdN28y1S7gQ5O05GSW30nN1kcX+YeuLC0G6aLc0oJmkVBiaQRmUpV4SfKnaIj7dCy5dw7ZdA/up1sn0hQ/WIlwJmAxilJpJ/vWHUf8c/0i2cR5jd9VVU+81/2JivWEn1p0H+efZVFyI5HFCYErhnX3Ccs5RSB/qIH6xU+yJczV9UJkDPSnmvaBi7i1pQkqUoJSBmSTkBEb3njRblstuS8k6mp1Eag0wrNCT/mVs9AitN13bVrxq6qhVX9NexttOpDSeJIjZ4W041PEuhMBOYRMB5XkQCr9IubCEIQiEt0l9GqL54r2IrfAbYvfRfmKn+bN+yIzoQhCNdXqW3WqDP0x0eBNMLaPNmNXrijU5KOyE8/KPpKXWHFNrSeAg5GJAmsJKpP23J3FbKu+cjMNBamRqeaV9pOX2sjns180cKhypUOfzSqakZxs8BU2tJ/OOhqWJVz1q3HaFVZ4TkospVpPIBcSUnMZKH6xg2RX27XvKm1l5C1syzuk4lHyikgg5dMWNlMfLImAO6vTsseJyXJ/LONBijiXaVyYd1Cn0uqpem3VNlDRbUknJYJ2jiiGsOKpJUXECkVGoPhiUYdKnHCCQkaJHBFkX8brDYByqy3cuBuXWf0iPMTcZKBc9nzdEpDc4XZhSM3HWwlOiFAnhz4Ihih1iZoFalarJhszMsvTb7onNOllwiNrX7/ALoubSTU6vMONH/BQrQb/wBo1R523Y9xXY+G6TTXXW89b6xotp8qjqjKvq0mbLqMtSVTwm6iGg5NlAyQ2TsSOE6tefPEh7nSgKmK7Ua84j9nKtBhskfbVrPQB64sfCEIQiEt0l9GqL54r2IrfAbYvfRfmKn+bN+yIzoQhCEVdx6tFVHutNcl28pOpa1kDUl4bekZHpjZ4BXwmnz7lrz7uixNK7pKKUdSXOFPp/Mc8TvW7VodxtFurUuWmxlkFLQNIeRW0RGde3PVuzLbr1Jm5uSdCSUtkhxBPFr1+uK0vNLYecaWCFoUUqHEQcjHas4R3pNU+Xn5SlCZlphtLra2XkHNJGY1ZxqqtYV00KScnanRJqWlm8gt1aRojM5DWDGlp9Pm6rPtSMjLrmJp06LbSBmpR5o6tjCW+pggJt2ZTnwuKSn8zGoue0avaE0xK1lltl99vuiW0uBZCc8teWyOlwsw3bxAnZ74TOOyspJpSVKbQCVqUTq17NQMT5QsGbMoRS4Kd8NeT/iTiu6a/u7PVHR3HW6dZ1szNSfS21LyyPAaQAnSV9lIHOYpfValO3JX5mfmNJ2bnHirIa8yTqA9Qi3+G9qi0LKkqcpIEypPdpk8bitZHo1D0R1sIQhCIS3SX0aovnivYit8Bti99F+Yqf5s37IjOhCEIRobxteUu+2ZqkTYA7qnNpzLW24PkqEU0q1LqNrV96Rm0rl52Uc1EatY1hQPFwgxZ3CjE6XvCmpp9QcS3W2EZLSdXd0j7aefjESZFOMWaCbfxGqjKUaLEwv4SzxaK9Z9eYidMBrjFXsQU5xecxTHC0QdvczrSfzHojYY3fVVVPvNf9iYr1hJ9adB/nn2VRccnIZmKa4pXELmxBqU42vSl2l/B2TwaKNWfpOZ9MT5gRQDR8PW5txGi9UXTMHPbofJT6hn6YkidnZenSbs3NvIZl2klbjizkEgcMVMxVxHdvisBiUUtFHlVHuCDq7or98j8uIR0+BeHqqlUk3TUmf7FLK/siFD+8c/e8ifz8kWThCEIQiEt0l9GqL54r2IrfAbYvfRfmKn+bN+yIzoQhCEIjrFLDOXvimiZldBmsy6T3F06g4P3FfoeCKsON1W2K2ULD8jUpRz7qkKHDFg8PMc5KpttU251olJ7UlM3sbd+9+6fVDH22E1i2pW5JIJdckfBdUjXpMq4cxxH84iTCm8v/DrxZffWU0+aHcJocASTqV6D6s4n/GpxD2E1TcbUFIUWSlQOYIK064r5hJ9adB/nn2VRYbF69UWlaDzTDoFSnklmXSDrSCPCX6B6yIq9alAmLpuiRpEuCVTDoC1fuo2qUfIM4t7Wbmt6waGyiemm5dlhoNsMJ1uLAGQCUxWjETFOqXw+ZdGlKUhCs25ZKta+IrPCebYI9cMcL5y9Z9M5NoWxRGlftXcsi6R9lH6ngi2EjIy1NkmZOTZSzLsoCG20DIJAjIhCEIQiEt0l9GqL54r2IrfAbYvfRfmKn+bN+yIzoQhCEIRxl94bUa+ZT+1I+D1BCcmZxseEnmV+8OaKxXhhzcFmTChPypclM/Am2QVNqHOfsnmMY9Bv24LflXJKVnS7T3UlDknMDujSknURkdnojnFqClqUEhIJJCRwc0du3iTPP4cTdoVFKphs6HwV/PwmwlQOieMatXFGjs6vIti7JCtOMqfTKrK+5pORUdEgDPymPl2XXUrxrjtUqS81q8FttPyWkcCRH6tu7anahmXaQWmZt9Hc/hJRpLQnhCc9Qz44wHn6pcNT03VzM/PPKyBJLi1GJkw/wABpiZcaqN2ZssDJSZFJ8Nf3zwDmGuLBycnLyEo1KyjKGWGkhKG205JSOICPeEIQhCEQlukvo1RfPFexFb4DbF76L8xU/zZv2RGdCEIQhCEebzDUw0pp5tDjahkpC05gjnERrcmBlqVxS35NtylzKtelLfIJ50HV0ZRGFW3PFyyqlKps7JTzfAFKLSug6vXHLTOEN9yqiFW++5lwtKSseoxjIwuvhxWiLangedAH6xuJDA6+Z1Q06czKJP2n30jL0DMx3dB3OCEqS5Xq0VjhZk0ZZ/6ldkS3blkW9ajIRSKayyvLJTxGk4ryqOuOhhCEIQhCEQlukvo1RfPFexFb4zqzTHqLWpymzCSl2WeU2oHmMWxw7xDodw2xJIVPS8vPsMpafl3XAggpGWYz2g5R2Hfml8pSfXp7Y+9+aXylJ9enth35pfKUn16e2Hfml8pSfXp7Yd+aXylJ9enth35pfKUn16e2Hfml8pSfXp7Yd+aXylJ9enth35pfKUn16e2Hfml8pSfXp7Yd+aXylJ9enth35pfKUn16e2Hfml8pSfXp7Yd+aXylJ9enth35pfKUn16e2Hfml8pSfXp7Yd+aXylJ9enth35pfKUn16e2Hfml8pSfXp7Yd+aXylJ9enth35pfKUn16e2Hfml8pSfXp7Yd+aXylJ9enth35pfKUn16e2Hfml8pSfXp7Yd+aXylJ9entj4qtUpKSTU5MAaye7p7YrtjxfNMuGYkKPSn0TLcmtTjzzZzSVkZBIPDkM44myrAqN5szjsmg6EspCSrgJOZy9XribcW8JHLpdNcoYQKoE5PMqOQfA2EHgV+cVxqdFqdFmVS9SkZiUdScil1BT/APYwM4ZwzhnDOGcM4ZwzhnDOGcM4ZwzhnDOGcM4ZwzhnDOGcM4Zx91nVrjrLUw4uS7ZpCZKQcalSfDmnklLaRx5nb5BFr7NtKRsu3maVI+Fo+E66R4TqztUY/9k=;" parent="1" vertex="1">
          <mxGeometry x="64.38" y="310" width="61.25" height="50" as="geometry" />
        </mxCell>
        <mxCell id="6wWjzIDheBg6crcwVd9T-19" value="" style="endArrow=none;html=1;rounded=0;" parent="1" edge="1">
          <mxGeometry width="50" height="50" relative="1" as="geometry">
            <mxPoint x="62" y="373" as="sourcePoint" />
            <mxPoint x="623" y="373" as="targetPoint" />
          </mxGeometry>
        </mxCell>
        <mxCell id="mm1Qj6fEZsX3vGrP8EjE-1" value="First paint" style="text;html=1;align=center;verticalAlign=middle;whiteSpace=wrap;rounded=0;" parent="1" vertex="1">
          <mxGeometry x="385" y="217" width="60" height="30" as="geometry" />
        </mxCell>
        <mxCell id="WsGhffaVUbmhQ9LX8nPH-1" value="" style="endArrow=classic;html=1;rounded=0;curved=1;" edge="1" parent="1">
          <mxGeometry width="50" height="50" relative="1" as="geometry">
            <mxPoint x="110" y="365" as="sourcePoint" />
            <mxPoint x="155" y="365" as="targetPoint" />
            <Array as="points">
              <mxPoint x="130" y="415" />
            </Array>
          </mxGeometry>
        </mxCell>
        <mxCell id="WsGhffaVUbmhQ9LX8nPH-2" value="" style="endArrow=classic;html=1;rounded=0;curved=1;" edge="1" parent="1">
          <mxGeometry width="50" height="50" relative="1" as="geometry">
            <mxPoint x="220" y="366" as="sourcePoint" />
            <mxPoint x="265" y="366" as="targetPoint" />
            <Array as="points">
              <mxPoint x="240" y="416" />
            </Array>
          </mxGeometry>
        </mxCell>
        <mxCell id="WsGhffaVUbmhQ9LX8nPH-4" value="" style="endArrow=classic;html=1;rounded=0;curved=1;" edge="1" parent="1">
          <mxGeometry width="50" height="50" relative="1" as="geometry">
            <mxPoint x="509" y="412" as="sourcePoint" />
            <mxPoint x="530" y="367" as="targetPoint" />
            <Array as="points">
              <mxPoint x="530" y="397" />
            </Array>
          </mxGeometry>
        </mxCell>
      </root>
    </mxGraphModel>
  </diagram>
</mxfile>
